<?xml version="1.0" encoding="UTF-8"?>
<svg id="Layer_1" data-name="Layer 1" xmlns="http://www.w3.org/2000/svg" viewBox="0 0 350.43 318.33">
  <defs>
    <style>
      .cls-1 {
        fill: #fff;
      }

      .cls-2 {
        fill: #fafafa;
      }

      .cls-3 {
        fill: gray;
      }

      .cls-4 {
        fill: #fdfdfd;
      }

      .cls-5 {
        fill: #fbfbfb;
      }

      .cls-6 {
        fill: #f9f9f9;
      }

      .cls-7 {
        fill: #f3f3f3;
      }

      .cls-8 {
        fill: #f8f8f8;
      }

      .cls-9 {
        fill: #fefefe;
      }

      .cls-10 {
        fill: #fcfcfc;
      }
    </style>
  </defs>
  <path d="m252.59,290.45c6.42,9.22,7.4,17.66-1.26,24.89-3.26,2.72-13.8,3.99-17.53.69-8.25-7.3-9.02-11.53-3.16-25.21H63.02c4.74,5.91,6.26,12.5,2.73,18.9-1.75,3.16-5.21,5.88-8.53,7.56-6.08,3.08-15.61-1-18.98-7.39-2.9-5.5-.93-15.08,4.7-19.22-9.35,0-17.84-.02-26.33.01-1.66,0-3.31.26-4.97.26-6.98,0-11.15-3.23-11.4-8.5-.44-9.21,3.18-8.91,10.67-10.42,1.6-.32,3.32-.06,4.99-.06,82.17,0,164.35,0,246.52,0h6.16c-2.62-5.14-4.9-9.98-7.51-14.63-3.39-6.03-7.13-11.87-10.55-17.88-1.55-2.74-3.22-4.35-6.75-4.6-15.03-1.07-30.02-2.62-45.03-3.86-9.66-.8-19.35-1.21-29.01-2.07-13.19-1.18-26.34-2.7-39.53-3.91-8.99-.83-18.02-1.27-27.01-2.08-13.69-1.23-27.36-2.67-41.04-3.93-5.24-.48-10.52-1.14-15.75-.96-12.82.44-13.8-4.42-15.98-12.94-4.71-18.42-8.73-37.02-13.24-55.49C11.68,127.09,5.92,104.65.36,82.16c-1.66-6.73,2.51-11.63,10.18-12.24,1.16-.09,2.33-.01,3.5-.01,88.18,0,176.35,0,264.53,0h4.29c6.32-23.17,12.63-46.34,19.04-69.84,13.37,0,26.86-.21,40.33.09,6.53.14,8.5,3.46,8.17,11.79-.21,5.23-3.24,7.93-9.01,7.95-7,.03-14,.08-21-.03-2.95-.04-4.32.33-5.21,4.01-8.7,35.77-17.73,71.45-26.86,107.11-7.8,30.51-16.05,60.91-23.48,91.51-.8,3.28,2.11,7.81,4.06,11.35,7.68,13.93,15.69,27.69,23.54,41.53,4.52,7.97.76,15.29-10.14,15.51-7.97.16-15.95-.28-23.93-.43-1.62-.03-3.24,0-5.78,0Zm-65.29-173.62c-.82-1.24-1.6-2.66-2.61-3.89-1.04-1.27-2.26-2.41-3.48-3.53q-5.15-4.71-10.12.23c-2.32,2.31-4.68,4.57-7.41,7.22,4.46,4,8.52,7.64,12.66,11.36,3.75-3.9,7.19-7.47,10.97-11.4Zm-23.04,65.12c4.46,4.7,8.17,8.61,11.1,11.71,3.97-3.6,7.99-7.26,12.32-11.19-3.18-3.1-6.11-6.31-9.47-8.99-.98-.78-3.68-.68-4.74.14-3.41,2.61-6.41,5.75-9.2,8.33Zm-38.24-27.76c-3.37,3.54-6.48,6.56-9.22,9.88-.76.92-1.09,3.26-.47,4.09,2.83,3.79,6.07,7.28,8.69,10.33,5.12-4.89,9.01-8.61,12.69-12.13-3.7-3.86-7.38-7.69-11.68-12.17Zm29.28-4.09c-3.76-3.65-6.87-6.42-9.68-9.46-2.11-2.28-3.67-2.16-5.66.08-2.2,2.47-4.84,4.57-6.93,7.12-.69.84-.87,3.1-.25,3.84,2.33,2.79,4.94,5.41,7.78,7.67.96.76,3.46.93,4.35.22,3.49-2.76,6.61-5.97,10.38-9.49Zm-12.81,43.78c3.67-3.56,7.65-7.43,12.08-11.74-2.98-2.8-5.95-5.94-9.32-8.56-1.04-.81-3.7-.9-4.72-.13-3.53,2.65-6.67,5.83-9.96,8.82,4.72,4.6,8.62,8.39,11.92,11.62Zm-19.99-10.98c-3.99-3.71-6.99-6.84-10.39-9.45-1.02-.78-3.67-.71-4.72.09-2.74,2.08-5.17,4.66-7.38,7.32-.7.84-.89,3.1-.27,3.84,2.31,2.79,4.87,5.47,7.75,7.67,1.03.78,3.71.71,4.77-.11,3.38-2.6,6.35-5.73,10.25-9.36Zm-62.94-70.79c4.59-4.27,8.54-7.96,11.95-11.13-3.86-4.14-7.57-8.11-11.81-12.65-3.05,3.29-6.17,6.28-8.77,9.67-.79,1.03-.83,3.69-.04,4.7,2.63,3.39,5.79,6.37,8.67,9.42Zm132.43,75.58c-3.92,4.19-7.57,8.09-10.57,11.3,4.17,4.45,7.67,8.18,11.2,11.95,3.83-3.91,7.65-7.81,10.83-11.06-3.6-3.83-7.34-7.81-11.46-12.19ZM31.2,116.91c3.86,3.64,6.86,6.76,10.21,9.45.98.78,3.51,1.01,4.37.31,3.56-2.89,6.74-6.23,10.5-9.81-3.78-3.56-6.75-6.72-10.14-9.35-1.02-.79-3.71-.78-4.73.01-3.39,2.63-6.37,5.78-10.21,9.4Zm210.42,44.07c4.06-4.22,7.92-8.22,12.02-12.48-.46-.4-1.74-1.43-2.9-2.57-9.72-9.55-6.93-9.49-17.12.27-2.43,2.33-2.85,4.02-.18,6.42,2.94,2.65,5.56,5.66,8.17,8.36Zm-20.09-44.65c-3.13-2.98-5.58-5.75-8.49-7.92-1.54-1.15-4.88-2.33-5.68-1.6-3.32,3.02-6,6.75-8.84,10.27-.1.12.42.84.75,1.2,3.16,3.53,6.34,7.05,9.25,10.27,4.86-4.57,8.73-8.2,13.02-12.22Zm-45.96,44.36c4.12-3.99,7.88-7.61,11.84-11.44-2.99-2.92-5.96-6.07-9.24-8.86-.9-.77-3.26-1.13-4.03-.51-3.72,2.93-7.12,6.25-10.9,9.67,4.89,4.41,8.78,7.93,12.34,11.14Zm17.78-71.69c-4.29,4.22-8.01,7.88-11.98,11.79,2.65,2.54,5.57,5.27,8.4,8.08,1.59,1.58,3.36,3.59,5.17.79,2.54-3.95,10.29-5.42,7.36-11.72-1.79-3.84-6.31-6.42-8.95-8.94Zm-67.25-.45c-4.06,4.1-7.75,7.83-11.72,11.84,4.7,4.12,8.58,7.53,11.78,10.34,4.01-3.17,8.53-6.74,13-10.28-4.96-4.52-8.84-8.06-13.06-11.9Zm67.93,32.67c-5.17,4.91-8.9,8.45-12.75,12.1,3.56,3.92,7.17,7.9,10.58,11.65,4.24-4.18,8.12-8.01,12.73-12.56-3.48-3.69-7.23-7.67-10.56-11.2Zm75.24-19.59c-4.02-4.25-7.82-8.26-11.07-11.7-3.35,3.3-6.98,6.86-10.9,10.73,2.46,2.62,5.01,5.56,7.8,8.26,2.2,2.14,4.44,2.98,6.97-.08,2.41-2.92,5.36-5.38,7.21-7.21Zm-27.41,92.07c4.08-4.01,8.01-7.88,11.7-11.5-2.61-2.76-5.23-5.92-8.3-8.54-1.13-.96-4.07-1.5-4.94-.76-3.45,2.94-6.4,6.45-9.84,10.07,3.91,3.77,7.26,6.99,10.62,10.21.34.32.78.54.75.53ZM93.85,87.54c-2.93,3.1-4.61,4.94-6.37,6.71q-6.24,6.27,0,12.31c5.52,5.35,5.73,5.57,11.17.28,8.17-7.94,7.18-5.54.55-12.6-1.8-1.92-3.3-4.12-5.35-6.71Zm127.32,61.78c-1.4-1.1-2.96-2.06-4.21-3.34q-7.98-8.15-15.98-.07c-.59.59-1.54,1.12-1.66,1.8-.23,1.21-.46,2.95.19,3.71,3,3.49,6.31,6.72,9.53,10.06,4.41-4.42,8.27-8.29,12.13-12.16Zm-60.68-60.58c-4.69,4.42-8.39,7.9-12.15,11.44,3.9,3.75,7.82,7.53,11.89,11.45,3.17-3.44,6.63-7.19,10.87-11.79-3.65-3.82-7.35-7.69-10.61-11.1Zm-67.81,89.52c4.04-3.79,7.54-6.92,10.79-10.29.55-.57.44-2.57-.14-3.31-2.93-3.75-6.11-7.31-9.3-11.05-4.21,4.24-7.34,7.02-9.94,10.24-.84,1.04-1.02,3.78-.25,4.77,2.71,3.51,5.97,6.6,8.84,9.65Zm120.6-12.14c3.74,3.47,7,6.29,10.02,9.35,2.06,2.09,3.48,1.68,5.34-.24,2.86-2.95,5.97-5.66,8.94-8.45-3.82-4.31-7.21-8.12-10.96-12.34-4.32,3.78-8.36,7.32-13.34,11.68Zm-124.78,16.2c-3.17-3.06-6-6.15-9.25-8.72-1.04-.82-3.72-.96-4.73-.2-3.53,2.67-6.66,5.87-10.5,9.37,4.09,3.83,7.28,6.98,10.66,9.89.78.67,2.82,1.14,3.29.68,3.57-3.45,6.89-7.15,10.52-11.02Zm9.05-32.63c3.75,3.73,6.82,6.97,10.14,9.93.76.68,2.95,1.01,3.51.48,3.52-3.38,6.77-7.05,10.23-10.75-3.23-3.17-6.02-6.28-9.24-8.85-1.01-.8-3.71-.84-4.72-.05-3.37,2.64-6.33,5.81-9.91,9.24Zm-37.6,6.31c-3.47,3.25-7.39,6.92-10.73,10.06,3.79,3.98,7.53,7.91,10.34,10.86,4.04-3.29,8.05-6.55,12.17-9.9-4.29-4.01-8.19-7.67-11.78-11.02Zm160.54,26.29c-2.82-2.75-5.73-5.92-9.05-8.59-1.04-.84-4.19-1-4.64-.33-2.43,3.69-8.76,4.68-7.65,10.78.05.28.43.49.64.74,2.92,3.39,5.84,6.77,8.42,9.76,4.7-4.74,8.29-8.36,12.26-12.37Zm-110.13-53.51c4.03-3.8,7.99-7.53,12.16-11.47-4.19-4.07-6.99-7.16-10.22-9.73-1.04-.83-3.73-1-4.71-.24-3.49,2.71-6.57,5.95-9.61,8.81,4.12,4.2,7.69,7.84,12.38,12.62Zm48.51,49.04c4.31-4.29,8.13-8.09,11.21-11.15-3.58-3.66-7.38-7.55-10.47-10.72-3.17,3.58-6.58,7.44-10.13,11.45,2.42,2.68,6.01,6.67,9.39,10.42Zm-70.78-28.79c-2.8-2.74-5.6-5.84-8.82-8.43-1.04-.83-3.71-.99-4.72-.24-3.53,2.66-6.66,5.86-9.48,8.44,4.26,4.55,7.81,8.36,11.49,12.29,3.81-3.98,7.47-7.82,11.53-12.07Zm-22.94-33.09c4.16,4.39,7.73,8.17,11.44,12.1,3.86-4.04,7.62-7.97,11.41-11.93-2.72-2.72-5.5-5.85-8.69-8.47-1.03-.84-3.73-1.04-4.71-.29-3.51,2.7-6.6,5.93-9.45,8.59Zm160.49-26.57c-3.81,3.57-7.61,7.12-11.8,11.04,3.3,3.14,6.27,6.31,9.65,8.94,1.02.8,3.71.79,4.75,0,3.35-2.58,6.28-5.69,8.73-7.99-4.21-4.46-7.95-8.41-11.33-11.98Zm-11.45,110.36c2.95,2.81,6,6.07,9.48,8.8.96.75,3.67.54,4.71-.3,3.21-2.58,6.01-5.69,8.26-7.89-3.84-4.24-7.57-8.35-11.09-12.24-3.74,3.83-7.3,7.48-11.35,11.63Zm-33.22-33.1c4.12,3.52,7.86,9.14,12.12,9.56,3.24.32,7.15-5.94,10.74-9.29.17-.16.18-.48-.2.6-4.11-4.47-7.78-8.46-11.3-12.29-3.6,3.61-7.19,7.22-11.36,11.42Zm72.77-50.13c-3.16-3.06-6.27-5.82-9.07-8.87-2.2-2.4-4.18-2.14-5.56.32-2.06,3.67-9.71,4.6-6.19,10.81,2.14,3.77,5.8,6.67,8.69,9.87,4.44-4.43,8.04-8.04,12.13-12.13Zm-106.06,17.46c3.17,2.79,6.31,6.73,10.39,8.84,5.17,2.68,6.45-3.76,9.61-5.88,1.62-1.09,4.37-2.69,1.66-5.47-.12-.12-.21-.25-.32-.38-3.02-3.25-6.04-6.5-8.82-9.49-4.23,4.18-7.85,7.76-12.51,12.38Zm6.62-17.85c-2.84-2.76-5.92-5.56-8.78-8.58-1.9-2.01-3.38-2.13-5.33-.07-2.85,3.02-5.92,5.84-9.11,8.94,3.7,4.53,7.25,8.86,9.32,11.39,5.7-4.79,9.55-8.03,13.89-11.69Zm-28.37,5.24c-3.2,3.36-6.37,6.48-9.26,9.85-.68.79-1,3-.46,3.55,3.42,3.48,7.13,6.68,10.37,9.62,3.92-3.62,7.78-7.19,11.8-10.91-4.15-4.03-7.93-7.72-12.44-12.1Zm111.55,12.26c-.74-.78-1.37-1.27-1.79-1.91-6.67-10.16-9.16-10.49-17.37-2.24-.47.47-.93.96-1.43,1.39-3.41,2.86-.82,5.01,1.3,6.21,3.32,1.88,4.2,9.25,10.09,5.27,3.4-2.29,6.06-5.68,9.2-8.73Zm-155.2-.45c3.89,3.87,7.75,7.71,9.98,9.93,3.36-2.58,6.55-5.5,10.2-7.66,2.69-1.59,2.13-2.65.52-4.37-3.04-3.24-6.02-6.54-8.77-9.54-4.37,4.27-8,7.82-11.92,11.64Zm-10.23,1.16c-4.75-4.99-8.28-8.7-11.18-11.75-3.79,3.79-7.47,7.48-11.11,11.13,3.41,3.43,7.17,7.21,10.25,10.29,4.1-3.29,8.17-6.56,12.04-9.67Zm99.57,65.22c-3.25-3.18-6.28-6.03-9.16-9.02-2.26-2.34-4.26-2.1-6.26.2-2.56,2.95-5.09,5.91-7.59,8.83,2.22,2.38,4.65,4.66,6.69,7.25,2.5,3.17,5.19,2.98,7.88.72,2.91-2.44,5.55-5.22,8.45-7.99Zm-115.83-49.55c-3.09-3.11-5.56-5.83-8.3-8.23-1.33-1.17-4.16-2.84-4.64-2.41-2.74,2.45-6.84,5.38-6.97,8.3-.22,5.11,1.83,10.49,7.66,13.22,3.9-3.47,7.91-7.03,12.25-10.89Zm70.7,37.92c-3.99,4.07-7.8,7.96-11.64,11.87,8.44,9.27,15.57,9.25,23.14-.62-3.77-3.68-7.56-7.38-11.51-11.24Zm120.76-54.58c3.16,3.15,5.92,6.01,8.83,8.73.88.82,2.17,1.75,3.24,1.72,2.41-.08,7.6-6.82,8.11-9.38,1.07-5.4-3.4-7.28-6.3-9.97-.86-.79-3.67-.68-4.69.13-3.22,2.57-6.02,5.68-9.18,8.78Zm-154.06,54.05c-2.21,2.27-3.95,4.27-5.92,6.03-2.09,1.87-4.39,3.5-6.57,5.21,6.77,7.14,19.27,6.88,23.95.9-3.69-3.91-7.33-7.77-11.46-12.14ZM21.33,89.17c1.92,7.63,3.81,15.11,5.75,22.8,4.18-4.16,8-7.95,12.09-12.02-5.99-3.3-8.07-12.92-17.84-10.77Zm49.93,110.72c-4.12-4.44-7.67-8.26-9.91-10.67-4.06,3.53-7.95,6.92-12.57,10.93,7.95-1.41,15.19,2.83,22.48-.27Zm185.75-23.94c1.69-7.23,3.14-13.45,4.72-20.19-8.04.29-10.03,6.87-14.76,10.05,3.33,3.36,6.22,6.28,10.04,10.15Zm-201.22,6.93c-4.54-3.55-7.24-8.97-14.09-11.58,1.75,7.36,3.23,13.57,4.79,20.11,3.38-3.1,6.07-5.57,9.3-8.53Zm191.14,32.9c.43-1.1,1.44-2.41,1.12-3.08-1.11-2.33-2.52-4.59-4.18-6.56-.58-.69-2.83-1.07-3.28-.6-2.94,3.07-5.6,6.4-8.85,10.24h15.19Zm-46.05-3.11c6.47.6,11.34,1.05,16.21,1.5l.73-1.49c-2.97-2.55-5.61-6.11-9.04-7.18-1.54-.48-4.63,4.06-7.91,7.17Zm72.82-104.27c-.47-.11-.94-.22-1.41-.33-3.07,2.89-6.14,5.77-9.07,8.54,2.18,2.35,3.94,4.24,6.49,6.98,1.49-5.67,2.74-10.43,3.99-15.19ZM30.07,125.66c1.33,4.68,2.42,8.53,3.57,12.59,6.45-4.72,5.71-7.32-3.57-12.59Zm210.72-30.87c2.44-1.95,4.77-3.82,6.85-5.48h-12.06c2.49,2.62,4.35,4.58,5.21,5.48Zm-169.73-5.72c5.04,7.7,6.06,7.66,11.8,0h-11.8Zm-20.75.24h-12.11c4.72,7.31,4.87,7.31,12.11,0Zm152.57-.24c2.58,2.47,4.46,4.26,5.51,5.26,2.39-1.87,4.46-3.47,6.75-5.26h-12.26Zm-20.81,122.37c-5.29-7.98-6.49-8.1-11-1.7,3.5.54,6.71,1.04,11,1.7Zm92.98-114.79c1.5-2.76,2.67-4.89,4.13-7.58h-9.83c1.79,2.38,3.39,4.5,5.7,7.58Zm-103.61-7.49c1.49,1.79,3.19,3.83,4.97,5.96,1.77-1.99,3.35-3.76,5.32-5.96h-10.29Zm-22.74.16h-11.45q5.48,5.61,11.45,0Zm-43.97-.14q4.65,6.06,11.11,0h-11.11Zm127.35,201.33c-.1-.11-.2-.31-.32-.32-.11,0-.24.18-.36.28.11.11.22.3.34.3.12,0,.24-.18.34-.26Z"/>
  <path class="cls-5" d="m187.3,116.83c-3.78,3.93-7.22,7.5-10.97,11.4-4.14-3.72-8.2-7.36-12.66-11.36,2.73-2.66,5.09-4.92,7.41-7.22q4.96-4.93,10.12-.23c1.22,1.12,2.44,2.26,3.48,3.53,1.01,1.23,1.79,2.64,2.61,3.89Z"/>
  <path class="cls-8" d="m164.26,181.96c2.79-2.59,5.79-5.72,9.2-8.33,1.06-.81,3.76-.92,4.74-.14,3.36,2.68,6.29,5.89,9.47,8.99-4.32,3.92-8.35,7.58-12.32,11.19-2.94-3.1-6.64-7.01-11.1-11.71Z"/>
  <path class="cls-10" d="m126.02,154.2c4.3,4.48,7.98,8.31,11.68,12.17-3.68,3.52-7.57,7.23-12.69,12.13-2.62-3.05-5.86-6.54-8.69-10.33-.62-.83-.29-3.17.47-4.09,2.74-3.32,5.86-6.34,9.22-9.88Z"/>
  <path class="cls-10" d="m155.3,150.1c-3.77,3.52-6.9,6.73-10.38,9.49-.89.7-3.39.54-4.35-.22-2.84-2.26-5.45-4.89-7.78-7.67-.62-.74-.44-3,.25-3.84,2.09-2.55,4.73-4.65,6.93-7.12,1.99-2.24,3.56-2.36,5.66-.08,2.81,3.04,5.91,5.81,9.68,9.46Z"/>
  <path class="cls-5" d="m142.49,193.88c-3.31-3.22-7.2-7.02-11.92-11.62,3.29-2.98,6.43-6.16,9.96-8.82,1.02-.77,3.68-.68,4.72.13,3.37,2.62,6.34,5.76,9.32,8.56-4.43,4.31-8.41,8.17-12.08,11.74Z"/>
  <path class="cls-10" d="m122.5,182.9c-3.89,3.64-6.87,6.77-10.25,9.36-1.06.81-3.74.89-4.77.11-2.87-2.19-5.43-4.87-7.75-7.67-.62-.75-.42-3,.27-3.84,2.2-2.67,4.63-5.24,7.38-7.32,1.05-.8,3.7-.87,4.72-.09,3.41,2.6,6.41,5.74,10.39,9.45Z"/>
  <path class="cls-5" d="m59.56,112.11c-2.88-3.05-6.04-6.03-8.67-9.42-.78-1.01-.75-3.67.04-4.7,2.6-3.39,5.71-6.38,8.77-9.67,4.24,4.55,7.95,8.52,11.81,12.65-3.41,3.18-7.36,6.86-11.95,11.13Z"/>
  <path class="cls-6" d="m191.99,187.69c4.12,4.38,7.86,8.36,11.46,12.19-3.18,3.25-7,7.15-10.83,11.06-3.53-3.77-7.03-7.5-11.2-11.95,3.01-3.21,6.66-7.12,10.57-11.3Z"/>
  <path class="cls-10" d="m31.2,116.91c3.84-3.62,6.82-6.77,10.21-9.4,1.03-.8,3.71-.8,4.73-.01,3.39,2.63,6.36,5.79,10.14,9.35-3.76,3.59-6.95,6.93-10.5,9.81-.86.7-3.4.48-4.37-.31-3.35-2.69-6.35-5.81-10.21-9.45Z"/>
  <path class="cls-2" d="m241.63,160.98c-2.61-2.7-5.23-5.71-8.17-8.36-2.67-2.41-2.25-4.1.18-6.42,10.18-9.76,7.4-9.82,17.12-.27,1.16,1.14,2.44,2.17,2.9,2.57-4.11,4.26-7.96,8.26-12.02,12.48Z"/>
  <path class="cls-10" d="m221.54,116.33c-4.29,4.02-8.15,7.66-13.02,12.22-2.91-3.22-6.09-6.74-9.25-10.27-.32-.36-.85-1.08-.75-1.2,2.85-3.52,5.52-7.25,8.84-10.27.8-.73,4.14.45,5.68,1.6,2.91,2.16,5.36,4.94,8.49,7.92Z"/>
  <path class="cls-10" d="m175.58,160.69c-3.56-3.21-7.45-6.73-12.34-11.14,3.78-3.43,7.19-6.75,10.9-9.67.78-.61,3.13-.25,4.03.51,3.28,2.79,6.25,5.94,9.24,8.86-3.96,3.83-7.71,7.45-11.84,11.44Z"/>
  <path class="cls-4" d="m193.35,89c2.64,2.52,7.16,5.09,8.95,8.94,2.93,6.29-4.82,7.77-7.36,11.72-1.81,2.8-3.57.79-5.17-.79-2.83-2.81-5.75-5.54-8.4-8.08,3.97-3.91,7.69-7.57,11.98-11.79Z"/>
  <path class="cls-5" d="m126.11,88.55c4.22,3.84,8.1,7.38,13.06,11.9-4.47,3.54-8.99,7.11-13,10.28-3.2-2.81-7.08-6.21-11.78-10.34,3.96-4,7.66-7.74,11.72-11.84Z"/>
  <path class="cls-4" d="m194.04,121.23c3.33,3.53,7.08,7.51,10.56,11.2-4.61,4.54-8.49,8.37-12.73,12.56-3.41-3.76-7.02-7.74-10.58-11.65,3.85-3.66,7.57-7.19,12.75-12.1Z"/>
  <path class="cls-6" d="m269.28,101.64c-1.85,1.82-4.81,4.29-7.21,7.21-2.53,3.06-4.76,2.22-6.97.08-2.79-2.7-5.34-5.64-7.8-8.26,3.93-3.86,7.55-7.43,10.9-10.73,3.25,3.43,7.05,7.45,11.07,11.7Z"/>
  <path class="cls-5" d="m241.87,193.71s-.41-.2-.75-.53c-3.36-3.21-6.71-6.44-10.62-10.21,3.44-3.62,6.39-7.14,9.84-10.07.86-.74,3.81-.2,4.94.76,3.07,2.62,5.68,5.78,8.3,8.54-3.69,3.63-7.62,7.5-11.7,11.5Z"/>
  <path class="cls-2" d="m93.85,87.54c2.04,2.59,3.54,4.79,5.35,6.71,6.63,7.06,7.63,4.65-.55,12.6-5.44,5.29-5.65,5.06-11.17-.28q-6.25-6.05,0-12.31c1.76-1.76,3.43-3.61,6.37-6.71Z"/>
  <path class="cls-5" d="m221.17,149.32c-3.86,3.87-7.72,7.74-12.13,12.16-3.22-3.34-6.52-6.57-9.53-10.06-.65-.76-.42-2.5-.19-3.71.13-.68,1.08-1.21,1.66-1.8q8.02-8.1,15.98.07c1.25,1.27,2.81,2.24,4.21,3.34Z"/>
  <path class="cls-1" d="m160.48,88.74c3.26,3.41,6.96,7.28,10.61,11.1-4.24,4.6-7.7,8.35-10.87,11.79-4.07-3.92-7.99-7.7-11.89-11.45,3.75-3.54,7.45-7.02,12.15-11.44Z"/>
  <path class="cls-5" d="m92.67,178.26c-2.87-3.05-6.12-6.14-8.84-9.65-.77-.99-.59-3.73.25-4.77,2.6-3.21,5.73-5.99,9.94-10.24,3.19,3.74,6.37,7.3,9.3,11.05.58.74.69,2.74.14,3.31-3.24,3.38-6.75,6.5-10.79,10.29Z"/>
  <path class="cls-5" d="m213.27,166.12c4.98-4.36,9.02-7.9,13.34-11.68,3.75,4.23,7.14,8.04,10.96,12.34-2.98,2.79-6.08,5.5-8.94,8.45-1.86,1.92-3.29,2.33-5.34.24-3.01-3.06-6.28-5.89-10.02-9.35Z"/>
  <path class="cls-4" d="m88.49,182.32c-3.63,3.86-6.95,7.57-10.52,11.02-.47.46-2.52-.01-3.29-.68-3.39-2.91-6.58-6.05-10.66-9.89,3.83-3.5,6.96-6.7,10.5-9.37,1.01-.76,3.69-.63,4.73.2,3.25,2.57,6.08,5.66,9.25,8.72Z"/>
  <path class="cls-4" d="m97.54,149.7c3.59-3.42,6.54-6.59,9.91-9.24,1.01-.79,3.71-.75,4.72.05,3.22,2.57,6.01,5.68,9.24,8.85-3.45,3.7-6.7,7.36-10.23,10.75-.55.53-2.74.2-3.51-.48-3.32-2.96-6.38-6.2-10.14-9.93Z"/>
  <path class="cls-5" d="m59.94,156.01c3.58,3.35,7.49,7.01,11.78,11.02-4.12,3.35-8.13,6.61-12.17,9.9-2.81-2.95-6.55-6.88-10.34-10.86,3.35-3.14,7.26-6.8,10.73-10.06Z"/>
  <path class="cls-2" d="m220.48,182.3c-3.97,4.01-7.56,7.62-12.26,12.37-2.58-2.99-5.5-6.38-8.42-9.76-.22-.25-.59-.47-.64-.74-1.12-6.1,5.22-7.09,7.65-10.78.44-.67,3.59-.51,4.64.33,3.31,2.67,6.22,5.84,9.05,8.59Z"/>
  <path class="cls-10" d="m110.35,128.78c-4.7-4.79-8.26-8.42-12.38-12.62,3.05-2.86,6.12-6.1,9.61-8.81.98-.76,3.67-.59,4.71.24,3.22,2.57,6.03,5.66,10.22,9.73-4.17,3.93-8.13,7.67-12.16,11.47Z"/>
  <path class="cls-9" d="m158.85,177.83c-3.38-3.75-6.98-7.74-9.39-10.42,3.54-4.01,6.96-7.87,10.13-11.45,3.09,3.17,6.9,7.06,10.47,10.72-3.08,3.07-6.9,6.87-11.21,11.15Z"/>
  <path class="cls-4" d="m88.08,149.04c-4.06,4.25-7.72,8.08-11.53,12.07-3.68-3.93-7.24-7.74-11.49-12.29,2.83-2.58,5.95-5.77,9.48-8.44,1-.76,3.68-.59,4.72.24,3.22,2.58,6.02,5.69,8.82,8.43Z"/>
  <path class="cls-10" d="m65.14,115.95c2.85-2.66,5.95-5.89,9.45-8.59.98-.75,3.68-.55,4.71.29,3.19,2.61,5.97,5.75,8.69,8.47-3.79,3.96-7.55,7.89-11.41,11.93-3.71-3.93-7.29-7.7-11.44-12.1Z"/>
  <path class="cls-9" d="m225.63,89.38c3.37,3.57,7.11,7.52,11.33,11.98-2.45,2.3-5.38,5.42-8.73,7.99-1.03.8-3.72.8-4.75,0-3.38-2.64-6.34-5.81-9.65-8.94,4.18-3.91,7.99-7.47,11.8-11.04Z"/>
  <path class="cls-5" d="m214.18,199.74c4.05-4.15,7.61-7.8,11.35-11.63,3.52,3.89,7.25,8,11.09,12.24-2.24,2.2-5.04,5.3-8.26,7.89-1.04.84-3.75,1.05-4.71.3-3.47-2.73-6.53-5.99-9.48-8.8Z"/>
  <path class="cls-5" d="m180.96,166.64c4.17-4.19,7.77-7.8,11.36-11.42,3.52,3.83,7.19,7.82,11.3,12.29.38-1.08.37-.76.2-.6-3.59,3.35-7.5,9.61-10.74,9.29-4.26-.42-8-6.04-12.12-9.56Z"/>
  <path class="cls-5" d="m253.73,116.51c-4.09,4.09-7.69,7.69-12.13,12.13-2.89-3.19-6.55-6.1-8.69-9.87-3.52-6.21,4.13-7.15,6.19-10.81,1.38-2.46,3.36-2.71,5.56-.32,2.8,3.05,5.92,5.81,9.07,8.87Z"/>
  <path class="cls-1" d="m147.67,133.97c4.67-4.62,8.28-8.2,12.51-12.38,2.79,3,5.8,6.24,8.82,9.49.11.12.21.26.32.38,2.71,2.79-.04,4.39-1.66,5.47-3.16,2.13-4.44,8.56-9.61,5.88-4.08-2.12-7.22-6.06-10.39-8.84Z"/>
  <path class="cls-4" d="m154.29,116.12c-4.34,3.65-8.2,6.89-13.89,11.69-2.07-2.53-5.62-6.87-9.32-11.39,3.18-3.1,6.26-5.92,9.11-8.94,1.95-2.07,3.43-1.95,5.33.07,2.85,3.02,5.93,5.82,8.78,8.58Z"/>
  <path class="cls-9" d="m125.92,121.36c4.51,4.39,8.3,8.07,12.44,12.1-4.02,3.71-7.88,7.28-11.8,10.91-3.23-2.94-6.94-6.14-10.37-9.62-.54-.55-.22-2.75.46-3.55,2.89-3.37,6.06-6.49,9.26-9.85Z"/>
  <path class="cls-1" d="m237.47,133.62c-3.14,3.04-5.8,6.43-9.2,8.73-5.89,3.97-6.77-3.39-10.09-5.27-2.12-1.2-4.71-3.35-1.3-6.21.51-.43.96-.92,1.43-1.39,8.22-8.24,10.7-7.92,17.37,2.24.42.63,1.05,1.13,1.79,1.91Z"/>
  <path class="cls-9" d="m82.27,133.17c3.91-3.82,7.55-7.37,11.92-11.64,2.76,3.01,5.74,6.3,8.77,9.54,1.61,1.72,2.17,2.78-.52,4.37-3.65,2.16-6.84,5.08-10.2,7.66-2.23-2.21-6.08-6.05-9.98-9.93Z"/>
  <path class="cls-4" d="m72.04,134.32c-3.87,3.11-7.95,6.38-12.04,9.67-3.07-3.09-6.83-6.86-10.25-10.29,3.64-3.65,7.32-7.34,11.11-11.13,2.9,3.05,6.43,6.76,11.18,11.75Z"/>
  <path class="cls-4" d="m171.61,199.54c-2.9,2.77-5.53,5.55-8.45,7.99-2.69,2.25-5.38,2.45-7.88-.72-2.04-2.59-4.47-4.88-6.69-7.25,2.5-2.91,5.03-5.88,7.59-8.83,2-2.3,4-2.55,6.26-.2,2.88,2.99,5.92,5.84,9.16,9.02Z"/>
  <path class="cls-10" d="m55.78,149.99c-4.34,3.86-8.35,7.42-12.25,10.89-5.82-2.74-7.88-8.12-7.66-13.22.13-2.92,4.23-5.85,6.97-8.3.48-.43,3.31,1.24,4.64,2.41,2.74,2.4,5.2,5.12,8.3,8.23Z"/>
  <path class="cls-4" d="m126.48,187.91c3.95,3.86,7.74,7.56,11.51,11.24-7.57,9.87-14.71,9.89-23.14.62,3.83-3.91,7.64-7.79,11.64-11.87Z"/>
  <path class="cls-1" d="m247.24,133.33c3.17-3.1,5.96-6.21,9.18-8.78,1.02-.82,3.83-.93,4.69-.13,2.91,2.69,7.37,4.57,6.3,9.97-.51,2.57-5.69,9.3-8.11,9.38-1.07.04-2.36-.89-3.24-1.72-2.91-2.71-5.67-5.58-8.83-8.73Z"/>
  <path class="cls-4" d="m93.18,187.37c4.12,4.37,7.77,8.24,11.46,12.14-4.68,5.98-17.18,6.24-23.95-.9,2.18-1.71,4.48-3.34,6.57-5.21,1.97-1.76,3.72-3.77,5.92-6.03Z"/>
  <path class="cls-4" d="m21.33,89.17c9.77-2.14,11.85,7.47,17.84,10.77-4.09,4.07-7.91,7.86-12.09,12.02-1.94-7.69-3.83-15.17-5.75-22.8Z"/>
  <path class="cls-4" d="m71.26,199.89c-7.28,3.1-14.53-1.14-22.48.27,4.62-4.02,8.51-7.4,12.57-10.93,2.24,2.41,5.79,6.23,9.91,10.67Z"/>
  <path class="cls-8" d="m257.01,175.95c-3.82-3.86-6.71-6.78-10.04-10.15,4.73-3.18,6.72-9.76,14.76-10.05-1.58,6.75-3.03,12.97-4.72,20.19Z"/>
  <path class="cls-10" d="m55.79,182.88c-3.23,2.96-5.92,5.43-9.3,8.53-1.56-6.54-3.04-12.76-4.79-20.11,6.85,2.62,9.55,8.03,14.09,11.58Z"/>
  <path class="cls-5" d="m246.93,215.77h-15.19c3.25-3.84,5.91-7.18,8.85-10.24.45-.47,2.7-.09,3.28.6,1.66,1.98,3.07,4.23,4.18,6.56.32.67-.69,1.98-1.12,3.08Z"/>
  <path class="cls-5" d="m200.87,212.66c3.28-3.11,6.37-7.64,7.91-7.17,3.43,1.06,6.07,4.63,9.04,7.18l-.73,1.49c-4.87-.45-9.74-.9-16.21-1.5Z"/>
  <path class="cls-7" d="m273.7,108.4c-1.25,4.76-2.5,9.52-3.99,15.19-2.55-2.75-4.31-4.64-6.49-6.98,2.94-2.76,6-5.65,9.07-8.54.47.11.94.22,1.41.33Z"/>
  <path class="cls-6" d="m30.07,125.66c9.27,5.27,10.01,7.87,3.57,12.59-1.15-4.06-2.24-7.91-3.57-12.59Z"/>
  <path class="cls-8" d="m240.79,94.79c-.86-.9-2.72-2.86-5.21-5.48h12.06c-2.08,1.66-4.41,3.53-6.85,5.48Z"/>
  <path class="cls-2" d="m71.06,89.07h11.8c-5.74,7.66-6.76,7.7-11.8,0Z"/>
  <path class="cls-5" d="m50.32,89.31c-7.23,7.31-7.38,7.31-12.11,0h12.11Z"/>
  <path class="cls-5" d="m202.89,89.07h12.26c-2.3,1.79-4.36,3.4-6.75,5.26-1.05-1-2.93-2.8-5.51-5.26Z"/>
  <path class="cls-7" d="m182.07,211.44c-4.29-.66-7.49-1.16-11-1.7,4.51-6.41,5.7-6.29,11,1.7Z"/>
  <path class="cls-10" d="m275.06,96.64c-2.31-3.08-3.91-5.2-5.7-7.58h9.83c-1.47,2.69-2.63,4.82-4.13,7.58Z"/>
  <path class="cls-4" d="m171.45,89.16h10.29c-1.97,2.21-3.55,3.98-5.32,5.96-1.78-2.13-3.48-4.17-4.97-5.96Z"/>
  <path class="cls-4" d="m148.71,89.32q-5.96,5.61-11.45,0h11.45Z"/>
  <path class="cls-4" d="m104.74,89.17h11.11q-6.46,6.06-11.11,0Z"/>
  <path class="cls-3" d="m232.09,290.5c-.1.08-.22.26-.34.26-.12,0-.23-.19-.34-.3.12-.1.25-.29.36-.28.11,0,.21.21.32.32Z"/>
</svg>